<svg version="1.1" class="clearos-svg clearfoundation app-vendor-clearcenter app-free app-category-system app-sub-category-base" viewBox="0 0 400 400" preserveAspectRatio="xMinYMin" xmlns="http://www.w3.org/2000/svg" xmlns:xlink= "http://www.w3.org/1999/xlink">
<path
     fill="#AA0707"
     d="M91.666,184.647" />
  <path
     fill="#AA0707"
     d="M123.245,247.805" />
  <path
     fill="#AA0707"
     d="M91.666,184.647" />
  <path
     fill="#AA0707"
     d="M123.245,247.805" />
  <path
     style="fill:#686868"
     d="M 176.64258 96.3125 A 138.01106 138.01106 0 0 0 38.630859 234.32227 A 138.01106 138.01106 0 0 0 176.64258 372.33398 A 138.01106 138.01106 0 0 0 314.65234 234.32227 A 138.01106 138.01106 0 0 0 176.64258 96.3125 z M 173.50586 170.75781 C 212.71612 170.75781 244.50195 202.54343 244.50195 241.75391 C 244.50195 280.96418 212.7159 312.75 173.50586 312.75 C 134.29582 312.75 102.50977 280.96396 102.50977 241.75391 C 102.50977 202.54321 134.29604 170.75781 173.50586 170.75781 z " />
  <path
     d="m 303.76214,197.67125 c 49.42432,-20.52318 55.70665,-99.267664 55.70665,-99.267664 0,0 -20.9424,45.236784 -94.66,32.670594 11.30897,5.44587 32.6708,63.66474 38.95335,66.59707 z"
     style="fill:#686868" />
  <path
     d="M 240.09717,114.74032 C 344.80959,119.34753 350.6738,-0.443746 350.6738,-0.443746 266.48478,110.13245 102.71416,-36.045996 49.520394,184.68783 54.546605,192.22692 223.34277,118.5102 240.09717,114.74032 Z"
     style="fill:#686868" />
</svg>
