<?xml version="1.0" encoding="utf-8"?>
<!-- Generator: Adobe Illustrator 16.0.0, SVG Export Plug-In . SVG Version: 6.00 Build 0)  -->
<!DOCTYPE svg PUBLIC "-//W3C//DTD SVG 1.0//EN" "http://www.w3.org/TR/2001/REC-SVG-20010904/DTD/svg10.dtd">
<svg version="1.0" xmlns="http://www.w3.org/2000/svg" xmlns:xlink="http://www.w3.org/1999/xlink" x="0px" y="0px" width="1748px"
	 height="2480px" viewBox="0 0 1748 2480" enable-background="new 0 0 1748 2480" xml:space="preserve">
<g id="Layer_2">
</g>
<g id="Layer_5">
	<g>
		<circle fill="#686868" cx="794.062" cy="1443.997" r="625.829"/>
		<path fill="#FFFFFF" d="M1101.782,1477.694c0,177.804-144.14,321.94-321.943,321.94c-177.803,0-321.941-144.137-321.941-321.94
			c0-177.806,144.139-321.942,321.941-321.942C957.643,1155.752,1101.782,1299.889,1101.782,1477.694z"/>
		<path fill="#686868" d="M1370.506,1277.794c224.121-93.065,252.609-450.142,252.609-450.142s-94.966,205.132-429.248,148.149
			C1245.149,1000.496,1342.017,1264.497,1370.506,1277.794z"/>
		<path fill="#686868" d="M1081.809,901.733c474.832,20.892,501.424-522.317,501.424-522.317
			C1201.467,880.838,458.828,217.973,217.614,1218.919C240.406,1253.106,1005.834,918.828,1081.809,901.733z"/>
		<path fill="#686868" d="M1003.933,1245.496c-20.893,9.494-77.872-60.781-77.872-60.781l93.066,45.585
			C1019.127,1230.3,1024.825,1236.002,1003.933,1245.496z"/>
	</g>
</g>
<g id="Layer_4">
</g>
</svg>
