<?xml version="1.0" encoding="UTF-8" standalone="no"?>
<svg
   xmlns:dc="http://purl.org/dc/elements/1.1/"
   xmlns:cc="http://creativecommons.org/ns#"
   xmlns:rdf="http://www.w3.org/1999/02/22-rdf-syntax-ns#"
   xmlns:svg="http://www.w3.org/2000/svg"
   xmlns="http://www.w3.org/2000/svg"
   version="1.1"
   id="svg3649"
   viewBox="0 0 44.8037 48.452655"
   height="13.674416mm"
   width="12.6446mm">
  <defs
     id="defs3651">
    <clipPath
       id="clipPath86"
       clipPathUnits="userSpaceOnUse">
      <path
         id="path88"
         d="M 185.152,338.543 C 305.996,1120.58 679.039,467.605 938.129,805.879 929.023,747.941 912.668,688.719 888.277,628.242 678.152,258.66 362.859,862.52 185.152,338.543 Z" />
    </clipPath>
    <linearGradient
       id="linearGradient90"
       spreadMethod="pad"
       gradientTransform="matrix(-34.8559,398.407,398.407,34.8559,579.067,373.007)"
       gradientUnits="userSpaceOnUse"
       y2="0"
       x2="1"
       y1="0"
       x1="0">
      <stop
         id="stop92"
         offset="0"
         style="stop-opacity:1;stop-color:#fab220" />
      <stop
         id="stop94"
         offset="0.314607"
         style="stop-opacity:1;stop-color:#fab220" />
      <stop
         id="stop96"
         offset="0.691011"
         style="stop-opacity:1;stop-color:#f68b28" />
      <stop
         id="stop98"
         offset="0.97191"
         style="stop-opacity:1;stop-color:#f25b37" />
      <stop
         id="stop100"
         offset="1"
         style="stop-opacity:1;stop-color:#f25b37" />
    </linearGradient>
    <clipPath
       id="clipPath56"
       clipPathUnits="userSpaceOnUse">
      <path
         id="path58"
         d="m 0,0 0,1093 3806,0 L 3806,0 0,0 Z" />
    </clipPath>
    <clipPath
       id="clipPath62"
       clipPathUnits="userSpaceOnUse">
      <path
         id="path64"
         d="M 10.9531,451.746 C 131.813,1233.81 652.891,755.023 911.988,1093.29 902.875,1035.36 886.543,976.133 862.129,915.656 652.008,546.082 188.676,975.746 10.9531,451.746 Z" />
    </clipPath>
    <linearGradient
       id="linearGradient66"
       spreadMethod="pad"
       gradientTransform="matrix(-328.115,316.841,316.841,328.115,605.923,633.031)"
       gradientUnits="userSpaceOnUse"
       y2="0"
       x2="1"
       y1="0"
       x1="0">
      <stop
         id="stop68"
         offset="0"
         style="stop-opacity:1;stop-color:#fab220" />
      <stop
         id="stop70"
         offset="0.016854"
         style="stop-opacity:1;stop-color:#fab220" />
      <stop
         id="stop72"
         offset="0.314607"
         style="stop-opacity:1;stop-color:#fab220" />
      <stop
         id="stop74"
         offset="0.691011"
         style="stop-opacity:1;stop-color:#f6822e" />
      <stop
         id="stop76"
         offset="0.97191"
         style="stop-opacity:1;stop-color:#f0421e" />
      <stop
         id="stop78"
         offset="1"
         style="stop-opacity:1;stop-color:#f0421e" />
    </linearGradient>
    <clipPath
       id="clipPath34"
       clipPathUnits="userSpaceOnUse">
      <path
         id="path36"
         d="M 556.426,264.305 C 488.684,178.719 364.375,164.266 278.746,232 193.152,299.785 178.723,424.09 246.48,509.688 c 67.758,85.585 192.071,100.046 277.641,32.265 85.59,-67.746 100.043,-192.051 32.305,-277.648 z M 727.992,647.344 C 595.512,826.527 342.836,864.398 163.652,731.902 -15.5352,599.441 -53.4063,346.766 79.0664,167.547 211.559,-11.6289 464.234,-49.4609 643.453,82.9883 822.637,215.488 860.469,468.164 727.992,647.344 Z" />
    </clipPath>
    <radialGradient
       id="radialGradient38"
       spreadMethod="pad"
       gradientTransform="matrix(403.535,0,0,-403.535,403.535,407.45)"
       gradientUnits="userSpaceOnUse"
       r="1"
       cy="0"
       cx="0"
       fy="0"
       fx="0">
      <stop
         id="stop40"
         offset="0"
         style="stop-opacity:1;stop-color:#f9b41f" />
      <stop
         id="stop42"
         offset="0.314607"
         style="stop-opacity:1;stop-color:#f9b41f" />
      <stop
         id="stop44"
         offset="0.691011"
         style="stop-opacity:1;stop-color:#f6812e" />
      <stop
         id="stop46"
         offset="0.97191"
         style="stop-opacity:1;stop-color:#f04020" />
      <stop
         id="stop48"
         offset="1"
         style="stop-opacity:1;stop-color:#f04020" />
    </radialGradient>
  </defs>
  <metadata
     id="metadata3654">
    <rdf:RDF>
      <cc:Work
         rdf:about="">
        <dc:format>image/svg+xml</dc:format>
        <dc:type
           rdf:resource="http://purl.org/dc/dcmitype/StillImage" />
        <dc:title></dc:title>
      </cc:Work>
    </rdf:RDF>
  </metadata>
  <g
     transform="translate(-71.707851,-42.019569)"
     id="layer1">
    <g
       id="g30"
       transform="matrix(0.04775873,0,0,-0.04448989,72.707703,88.732805)">
      <g
         clip-path="url(#clipPath34)"
         id="g32">
        <path
           id="path50"
           style="fill:url(#radialGradient38);fill-opacity:1;fill-rule:nonzero;stroke:none"
           d="M 556.426,264.305 C 488.684,178.719 364.375,164.266 278.746,232 193.152,299.785 178.723,424.09 246.48,509.688 c 67.758,85.585 192.071,100.046 277.641,32.265 85.59,-67.746 100.043,-192.051 32.305,-277.648 z M 727.992,647.344 C 595.512,826.527 342.836,864.398 163.652,731.902 -15.5352,599.441 -53.4063,346.766 79.0664,167.547 211.559,-11.6289 464.234,-49.4609 643.453,82.9883 822.637,215.488 860.469,468.164 727.992,647.344" />
      </g>
    </g>
    <g
       id="g52"
       transform="matrix(0.04775873,0,0,-0.04448989,72.707703,88.732805)">
      <g
         clip-path="url(#clipPath56)"
         id="g54">
        <g
           clip-path="url(#clipPath62)"
           id="g60">
          <path
             id="path80"
             style="fill:url(#linearGradient66);fill-opacity:1;fill-rule:nonzero;stroke:none"
             d="m 10,451 0,2 1,0 0,6 1,0 0,6 1,0 0,6 1,0 0,6 1,0 0,6 1,0 0,5 1,0 0,6 1,0 0,5 1,0 0,5 1,0 0,5 1,0 0,5 1,0 0,6 1,0 0,4 1,0 0,5 1,0 0,5 1,0 0,4 1,0 0,5 1,0 0,4 1,0 0,5 1,0 0,4 1,0 0,4 1,0 0,4 1,0 0,4 1,0 0,4 1,0 0,4 1,0 0,4 1,0 0,4 1,0 0,4 1,0 0,3 1,0 0,4 1,0 0,3 1,0 0,4 1,0 0,3 1,0 0,4 1,0 0,3 1,0 0,4 1,0 0,3 1,0 0,3 1,0 0,3 1,0 0,3 1,0 0,3 1,0 0,4 1,0 0,3 1,0 0,3 1,0 0,3 1,0 0,2 1,0 0,3 1,0 0,3 1,0 0,3 1,0 0,3 1,0 0,2 1,0 0,3 1,0 0,3 1,0 0,3 1,0 0,2 1,0 0,3 1,0 0,2 1,0 0,3 1,0 0,2 1,0 0,3 1,0 0,2 1,0 0,3 1,0 0,2 1,0 0,2 1,0 0,3 1,0 0,2 1,0 0,2 1,0 0,2 1,0 0,3 1,0 0,2 1,0 0,2 1,0 0,2 1,0 0,2 1,0 0,2 1,0 0,2 1,0 0,3 1,0 0,2 1,0 0,2 1,0 0,2 1,0 0,2 1,0 0,2 1,0 0,2 1,0 0,2 1,0 0,2 1,0 0,1 1,0 0,2 1,0 0,2 1,0 0,2 1,0 0,2 1,0 0,1 1,0 0,2 1,0 0,2 1,0 0,2 1,0 0,2 1,0 0,1 1,0 0,2 1,0 0,2 1,0 0,1 1,0 0,2 1,0 0,1 1,0 0,2 1,0 0,2 1,0 0,1 1,0 0,2 1,0 0,2 1,0 0,1 1,0 0,2 1,0 0,1 1,0 0,2 1,0 0,1 1,0 0,2 1,0 0,1 1,0 0,1 1,0 0,2 1,0 0,1 1,0 0,2 1,0 0,1 1,0 0,2 1,0 0,1 1,0 0,1 1,0 0,2 1,0 0,1 1,0 0,1 1,0 0,2 1,0 0,1 1,0 0,1 1,0 0,2 1,0 0,1 1,0 0,1 1,0 0,1 1,0 0,2 1,0 0,1 1,0 0,1 1,0 0,1 1,0 0,1 1,0 0,2 1,0 0,1 1,0 0,1 1,0 0,1 1,0 0,1 1,0 0,1 1,0 0,2 1,0 0,1 1,0 0,1 1,0 0,1 1,0 0,1 1,0 0,1 1,0 0,1 1,0 0,1 1,0 0,1 1,0 0,1 1,0 0,1 1,0 0,1 1,0 0,1 1,0 0,2 1,0 0,1 2,0 0,1 1,0 0,1 1,0 0,1 1,0 0,1 1,0 0,1 1,0 0,1 1,0 0,1 1,0 0,1 1,0 0,1 1,0 0,1 1,0 0,1 1,0 0,1 1,0 0,1 1,0 0,1 2,0 0,1 1,0 0,1 1,0 0,1 1,0 0,1 1,0 0,1 1,0 0,1 2,0 0,1 1,0 0,1 1,0 0,1 1,0 0,1 1,0 0,1 2,0 0,1 1,0 0,1 1,0 0,1 2,0 0,1 1,0 0,1 1,0 0,1 2,0 0,1 1,0 0,1 1,0 0,1 2,0 0,1 1,0 0,1 2,0 0,1 1,0 0,1 2,0 0,1 1,0 0,1 1,0 0,1 2,0 0,1 1,0 0,1 2,0 0,1 2,0 0,1 1,0 0,1 2,0 0,1 1,0 0,1 2,0 0,1 2,0 0,1 1,0 0,1 2,0 0,1 2,0 0,1 2,0 0,1 1,0 0,1 2,0 0,1 2,0 0,1 2,0 0,1 2,0 0,1 2,0 0,1 2,0 0,1 2,0 0,1 2,0 0,1 2,0 0,1 2,0 0,1 2,0 0,1 2,0 0,1 2,0 0,1 3,0 0,1 2,0 0,1 3,0 0,1 2,0 0,1 2,0 0,1 3,0 0,1 2,0 0,1 3,0 0,1 3,0 0,1 3,0 0,1 2,0 0,1 3,0 0,1 3,0 0,1 3,0 0,1 3,0 0,1 4,0 0,1 3,0 0,1 3,0 0,1 4,0 0,1 4,0 0,1 3,0 0,1 4,0 0,1 4,0 0,1 4,0 0,1 5,0 0,1 4,0 0,1 5,0 0,1 5,0 0,1 5,0 0,1 6,0 0,1 6,0 0,1 6,0 0,1 7,0 0,1 7,0 0,1 8,0 0,1 8,0 0,1 9,0 0,1 10,0 0,1 12,0 0,1 13,0 0,1 15,0 0,1 17,0 0,1 19,0 0,1 21,0 0,1 21,0 0,1 19,0 0,1 17,0 0,1 15,0 0,1 12,0 0,1 11,0 0,1 11,0 0,1 9,0 0,1 8,0 0,1 7,0 0,1 8,0 0,1 6,0 0,1 6,0 0,1 6,0 0,1 5,0 0,1 6,0 0,1 5,0 0,1 4,0 0,1 5,0 0,1 4,0 0,1 4,0 0,1 4,0 0,1 4,0 0,1 4,0 0,1 4,0 0,1 3,0 0,1 3,0 0,1 4,0 0,1 3,0 0,1 3,0 0,1 3,0 0,1 3,0 0,1 3,0 0,1 3,0 0,1 2,0 0,1 3,0 0,1 3,0 0,1 2,0 0,1 3,0 0,1 2,0 0,1 2,0 0,1 3,0 0,1 2,0 0,1 2,0 0,1 3,0 0,1 2,0 0,1 2,0 0,1 2,0 0,1 2,0 0,1 2,0 0,1 2,0 0,1 2,0 0,1 2,0 0,1 2,0 0,1 2,0 0,1 1,0 0,1 2,0 0,1 2,0 0,1 2,0 0,1 2,0 0,1 1,0 0,1 2,0 0,1 2,0 0,1 1,0 0,1 2,0 0,1 1,0 0,1 2,0 0,1 2,0 0,1 1,0 0,1 2,0 0,1 1,0 0,1 2,0 0,1 1,0 0,1 1,0 0,1 2,0 0,1 1,0 0,1 2,0 0,1 1,0 0,1 2,0 0,1 1,0 0,1 1,0 0,1 2,0 0,1 1,0 0,1 1,0 0,1 1,0 0,1 2,0 0,1 1,0 0,1 1,0 0,1 1,0 0,1 2,0 0,1 1,0 0,1 1,0 0,1 1,0 0,1 1,0 0,1 1,0 0,1 2,0 0,1 1,0 0,1 1,0 0,1 1,0 0,1 1,0 0,1 1,0 0,1 1,0 0,1 1,0 0,1 2,0 0,1 1,0 0,1 1,0 0,1 1,0 0,1 1,0 0,1 1,0 0,1 1,0 0,1 1,0 0,1 1,0 0,1 1,0 0,1 1,0 0,1 1,0 0,1 1,0 0,1 1,0 0,2 1,0 0,1 1,0 0,1 1,0 0,1 1,0 0,1 1,0 0,1 1,0 0,1 1,0 0,1 1,0 0,1 1,0 0,2 1,0 0,1 1,0 0,1 1,0 0,1 1,0 0,1 1,0 0,1 1,0 0,2 1,0 0,1 1,0 0,1 1,0 0,1 1,0 0,2 1,0 0,1 1,0 0,1 1,0 0,1 1,0 0,2 2,0 0,-5 -1,0 0,-6 -1,0 0,-5 -1,0 0,-5 -1,0 0,-6 -1,0 0,-5 -1,0 0,-5 -1,0 0,-6 -1,0 0,-4 -1,0 0,-4 -1,0 0,-4 -1,0 0,-4 -1,0 0,-4 -1,0 0,-4 -1,0 0,-4 -1,0 0,-4 -1,0 0,-4 -1,0 0,-4 -1,0 0,-4 -1,0 0,-4 -1,0 0,-3 -1,0 0,-3 -1,0 0,-3 -1,0 0,-4 -1,0 0,-3 -1,0 0,-3 -1,0 0,-3 -1,0 0,-3 -1,0 0,-4 -1,0 0,-3 -1,0 0,-3 -1,0 0,-3 -1,0 0,-4 -1,0 0,-2 -1,0 0,-3 -1,0 0,-3 -1,0 0,-2 -1,0 0,-3 -1,0 0,-3 -1,0 0,-2 -1,0 0,-3 -1,0 0,-3 -1,0 0,-2 -1,0 0,-3 -1,0 0,-3 -1,0 0,-2 -1,0 0,-3 -1,0 0,-3 -1,0 0,-3 -1,0 0,-2 -1,0 0,-2 -1,0 0,-1 -1,0 0,-2 -1,0 0,-1 -1,0 0,-2 -1,0 0,-2 -1,0 0,-1 -1,0 0,-2 -1,0 0,-1 -1,0 0,-2 -1,0 0,-1 -1,0 0,-2 -1,0 0,-2 -1,0 0,-1 -1,0 0,-2 -1,0 0,-1 -1,0 0,-2 -1,0 0,-2 -1,0 0,-1 -1,0 0,-2 -1,0 0,-1 -1,0 0,-1 -1,0 0,-2 -1,0 0,-1 -1,0 0,-1 -1,0 0,-2 -1,0 0,-1 -1,0 0,-1 -1,0 0,-1 -1,0 0,-2 -1,0 0,-1 -1,0 0,-1 -1,0 0,-2 -1,0 0,-1 -1,0 0,-1 -1,0 0,-1 -1,0 0,-2 -1,0 0,-1 -1,0 0,-1 -1,0 0,-1 -1,0 0,-2 -1,0 0,-1 -1,0 0,-1 -1,0 0,-1 -1,0 0,-1 -1,0 0,-1 -1,0 0,-1 -1,0 0,-1 -1,0 0,-1 -1,0 0,-1 -1,0 0,-1 -1,0 0,-1 -1,0 0,-1 -1,0 0,-2 -1,0 0,-1 -1,0 0,-1 -1,0 0,-1 -1,0 0,-1 -1,0 0,-1 -1,0 0,-1 -1,0 0,-1 -1,0 0,-1 -1,0 0,-1 -1,0 0,-1 -1,0 0,-1 -1,0 0,-1 -1,0 0,-1 -2,0 0,-1 -1,0 0,-1 -1,0 0,-1 -1,0 0,-1 -1,0 0,-1 -2,0 0,-1 -1,0 0,-1 -1,0 0,-1 -1,0 0,-1 -1,0 0,-1 -2,0 0,-1 -1,0 0,-1 -1,0 0,-1 -1,0 0,-1 -1,0 0,-1 -2,0 0,-1 -1,0 0,-1 -1,0 0,-1 -1,0 0,-1 -2,0 0,-1 -1,0 0,-1 -2,0 0,-1 -1,0 0,-1 -2,0 0,-1 -1,0 0,-1 -2,0 0,-1 -1,0 0,-1 -2,0 0,-1 -1,0 0,-1 -2,0 0,-1 -1,0 0,-1 -2,0 0,-1 -1,0 0,-1 -2,0 0,-1 -1,0 0,-1 -2,0 0,-1 -2,0 0,-1 -2,0 0,-1 -2,0 0,-1 -2,0 0,-1 -1,0 0,-1 -2,0 0,-1 -2,0 0,-1 -2,0 0,-1 -2,0 0,-1 -2,0 0,-1 -2,0 0,-1 -2,0 0,-1 -2,0 0,-1 -2,0 0,-1 -2,0 0,-1 -3,0 0,-1 -2,0 0,-1 -3,0 0,-1 -2,0 0,-1 -3,0 0,-1 -2,0 0,-1 -3,0 0,-1 -2,0 0,-1 -3,0 0,-1 -3,0 0,-1 -3,0 0,-1 -3,0 0,-1 -3,0 0,-1 -4,0 0,-1 -3,0 0,-1 -3,0 0,-1 -4,0 0,-1 -3,0 0,-1 -4,0 0,-1 -5,0 0,-1 -4,0 0,-1 -5,0 0,-1 -4,0 0,-1 -5,0 0,-1 -5,0 0,-1 -6,0 0,-1 -6,0 0,-1 -7,0 0,-1 -6,0 0,-1 -9,0 0,-1 -9,0 0,-1 -10,0 0,-1 -13,0 0,-1 -15,0 0,-1 -21,0 0,-1 -34,0 0,-1 -54,0 0,-1 -37,0 0,-1 -22,0 0,-1 -16,0 0,-1 -12,0 0,-1 -11,0 0,-1 -10,0 0,-1 -8,0 0,-1 -6,0 0,-1 -7,0 0,-1 -7,0 0,-1 -6,0 0,-1 -5,0 0,-1 -5,0 0,-1 -5,0 0,-1 -5,0 0,-1 -4,0 0,-1 -5,0 0,-1 -3,0 0,-1 -4,0 0,-1 -3,0 0,-1 -4,0 0,-1 -3,0 0,-1 -4,0 0,-1 -4,0 0,-1 -3,0 0,-1 -3,0 0,-1 -2,0 0,-1 -3,0 0,-1 -3,0 0,-1 -2,0 0,-1 -3,0 0,-1 -3,0 0,-1 -2,0 0,-1 -3,0 0,-1 -3,0 0,-1 -2,0 0,-1 -2,0 0,-1 -2,0 0,-1 -2,0 0,-1 -2,0 0,-1 -2,0 0,-1 -2,0 0,-1 -2,0 0,-1 -2,0 0,-1 -3,0 0,-1 -2,0 0,-1 -2,0 0,-1 -2,0 0,-1 -2,0 0,-1 -1,0 0,-1 -2,0 0,-1 -2,0 0,-1 -1,0 0,-1 -2,0 0,-1 -1,0 0,-1 -2,0 0,-1 -2,0 0,-1 -1,0 0,-1 -2,0 0,-1 -2,0 0,-1 -1,0 0,-1 -2,0 0,-1 -1,0 0,-1 -2,0 0,-1 -2,0 0,-1 -1,0 0,-1 -1,0 0,-1 -2,0 0,-1 -1,0 0,-1 -1,0 0,-1 -1,0 0,-1 -2,0 0,-1 -1,0 0,-1 -1,0 0,-1 -2,0 0,-1 -1,0 0,-1 -1,0 0,-1 -2,0 0,-1 -1,0 0,-1 -1,0 0,-1 -1,0 0,-1 -2,0 0,-1 -1,0 0,-1 -1,0 0,-1 -2,0 0,-1 -1,0 0,-1 -1,0 0,-1 -1,0 0,-1 -1,0 0,-1 -1,0 0,-1 -1,0 0,-1 -1,0 0,-1 -1,0 0,-1 -1,0 0,-1 -1,0 0,-1 -1,0 0,-1 -1,0 0,-1 -1,0 0,-1 -1,0 0,-1 -1,0 0,-1 -1,0 0,-1 -1,0 0,-1 -1,0 0,-1 -1,0 0,-1 -1,0 0,-1 -2,0 0,-1 -1,0 0,-1 -1,0 0,-2 -1,0 0,-1 -1,0 0,-1 -1,0 0,-1 -1,0 0,-1 -1,0 0,-1 -1,0 0,-2 -1,0 0,-1 -1,0 0,-1 -1,0 0,-1 -1,0 0,-1 -1,0 0,-2 -1,0 0,-1 -1,0 0,-1 -1,0 0,-1 -1,0 0,-1 -1,0 0,-1 -1,0 0,-2 -1,0 0,-1 -1,0 0,-1 -1,0 0,-1 -1,0 0,-1 -1,0 0,-1 -1,0 0,-2 -1,0 0,-1 -1,0 0,-2 -1,0 0,-1 -1,0 0,-2 -1,0 0,-1 -1,0 0,-2 -1,0 0,-1 -1,0 0,-1 -1,0 0,-2 -1,0 0,-1 -1,0 0,-2 -1,0 0,-1 -1,0 0,-2 -1,0 0,-1 -1,0 0,-1 -1,0 0,-2 -1,0 0,-1 -1,0 0,-2 -1,0 0,-1 -1,0 0,-2 -1,0 0,-1 -1,0 0,-2 -1,0 0,-2 -1,0 0,-1 -1,0 0,-2 -1,0 0,-2 -1,0 0,-2 -1,0 0,-1 -1,0 0,-2 -1,0 0,-2 -1,0 0,-2 -1,0 0,-1 -1,0 0,-2 -1,0 0,-2 -1,0 0,-2 -1,0 0,-2 -1,0 0,-1 -1,0 0,-2 -1,0 0,-2 -1,0 0,-2 -1,0 0,-1 -1,0 0,-2 -1,0 0,-2 -1,0 0,-3 -1,0 0,-2 -1,0 0,-2 -1,0 0,-2 -1,0 0,-2 -1,0 0,-2 -1,0 0,-3 -1,0 0,-2 -1,0 0,-2 -1,0 0,-2 -1,0 0,-2 -1,0 0,-2 -1,0 0,-3 -1,0 0,-2 -1,0 0,-2 -1,0 0,-2 -1,0 0,-2 -1,0 0,-3 -1,0 0,-2 -1,0 0,-3 -1,0 0,-2 -1,0 0,-3 -1,0 0,-3 -1,0 0,-2 -1,0 0,-3 -1,0 0,-3 -1,0 0,-2 -1,0 0,-3 -1,0 0,-3 -1,0 0,-2 -1,0 0,-3 -1,0 0,-3 -1,0 0,-2 -1,0 0,-3 -1,0 0,-3" />
        </g>
      </g>
    </g>
    <g
       id="g82"
       transform="matrix(0.04775873,0,0,-0.04448989,72.707703,88.732805)">
      <g
         clip-path="url(#clipPath86)"
         id="g84">
        <path
           id="path102"
           style="fill:url(#linearGradient90);fill-opacity:1;fill-rule:nonzero;stroke:none"
           d="M 185.152,338.543 C 305.996,1120.58 679.039,467.605 938.129,805.879 929.023,747.941 912.668,688.719 888.277,628.242 678.152,258.66 362.859,862.52 185.152,338.543" />
      </g>
    </g>
    <path
       id="path104"
       style="fill:#a4a9a8;fill-opacity:1;fill-rule:nonzero;stroke:none"
       d="m 83.665514,73.452975 c -0.602191,-4.82524 3.107707,-9.189075 8.28633,-9.752184 1.505737,-0.162121 2.967584,0.02349 4.302392,0.47622 -1.808671,-1.148774 -4.04865,-1.722782 -6.392744,-1.470258 -5.178861,0.563065 -8.888711,4.9269 -8.286522,9.75214 0.426295,3.420516 2.91123,6.143788 6.164028,7.244736 -2.187158,-1.386305 -3.743997,-3.6108 -4.073484,-6.250654" />
  </g>
</svg>
